<?xml version="1.0" standalone="no"?>
<!DOCTYPE svg PUBLIC "-//W3C//DTD SVG 20010904//EN"
 "http://www.w3.org/TR/2001/REC-SVG-20010904/DTD/svg10.dtd">
<svg version="1.0" xmlns="http://www.w3.org/2000/svg"
 width="577.000000pt" height="577.000000pt" viewBox="0 0 577.000000 577.000000"
 preserveAspectRatio="xMidYMid meet">
<metadata>
Created by potrace 1.14, written by Peter Selinger 2001-2017
</metadata>
<g transform="translate(0.000000,577.000000) scale(0.100000,-0.100000)"
fill="#000000" stroke="none">
<path d="M3730 4173 c-45 -26 -130 -106 -130 -123 0 -6 -96 -45 -140 -55 -3
-1 -18 -7 -33 -13 -16 -7 -35 -12 -43 -12 -8 0 -22 -4 -32 -9 -9 -5 -28 -13
-42 -19 -14 -6 -46 -20 -72 -31 -27 -11 -48 -17 -48 -14 0 3 -6 1 -12 -5 -14
-10 -121 -43 -135 -41 -4 1 -10 0 -13 -1 -3 -1 -45 -4 -95 -5 -122 -5 -253
-14 -295 -21 -51 -8 -201 -43 -230 -53 -32 -12 -54 -18 -60 -19 -17 -1 -208
-105 -257 -139 -17 -13 -36 -23 -41 -23 -6 0 -12 -3 -14 -7 -1 -5 -19 -20 -39
-35 -34 -25 -38 -26 -75 -14 -104 35 -172 -21 -169 -139 1 -35 -3 -42 -34 -61
-34 -21 -35 -21 -65 -3 -16 10 -33 16 -38 13 -4 -3 -8 -1 -8 3 0 5 -22 9 -50
10 -42 0 -55 -4 -85 -31 -47 -41 -62 -97 -60 -216 2 -95 6 -125 26 -211 6 -26
11 -54 13 -63 1 -8 5 -19 9 -22 4 -4 7 -18 7 -31 0 -13 4 -23 8 -23 5 0 9 -6
9 -14 0 -7 9 -33 20 -57 11 -24 26 -59 34 -76 8 -18 18 -33 22 -33 5 0 6 -4 3
-9 -3 -5 1 -14 9 -21 8 -7 15 -17 15 -22 0 -5 14 -29 30 -53 17 -24 30 -48 30
-54 0 -6 4 -11 9 -11 11 0 21 -37 12 -45 -3 -4 -7 -11 -7 -16 -1 -5 -2 -10 -3
-11 -1 -2 -4 -19 -6 -38 -5 -53 -14 -90 -36 -152 -24 -68 -18 -102 21 -118 24
-10 33 -9 51 4 25 17 27 25 33 103 7 83 33 114 60 69 6 -10 24 -32 40 -50 70
-76 87 -124 72 -204 -7 -34 13 -81 42 -96 37 -19 70 -2 82 43 8 32 6 50 -13
126 -4 12 -35 84 -49 109 -5 10 -12 41 -14 68 -4 47 -3 49 18 42 13 -4 39 -17
58 -30 42 -29 71 -30 93 -6 28 31 21 67 -19 100 -40 33 -38 46 10 91 14 14 26
30 26 38 0 7 4 13 8 13 15 0 51 136 44 163 -3 10 25 9 46 -2 29 -16 143 -49
222 -63 80 -15 295 -14 295 2 0 1 11 3 25 5 22 3 59 10 95 18 6 2 15 5 20 8
10 6 52 18 93 25 12 2 22 1 23 -3 0 -5 2 -24 4 -43 6 -70 15 -146 21 -195 4
-27 7 -59 8 -70 1 -11 4 -24 7 -30 3 -5 6 -23 7 -40 3 -31 9 -70 12 -70 1 0 4
-11 5 -25 2 -14 6 -32 8 -40 2 -8 7 -28 11 -45 20 -80 49 -145 75 -167 22 -18
106 -73 106 -69 0 3 13 -1 65 -17 19 -6 49 -14 65 -17 17 -3 37 -8 45 -10 8
-2 20 -4 26 -4 6 -1 53 -41 105 -91 57 -55 103 -90 117 -91 12 -1 28 -2 35 -3
6 -1 18 6 25 16 17 23 24 58 11 58 -5 0 -9 6 -9 13 0 6 -21 23 -47 37 -27 14
-53 30 -60 36 -17 16 -53 77 -53 90 0 12 110 11 225 -1 33 -3 71 -7 85 -8 14
-1 31 -6 39 -11 10 -7 12 -6 6 3 -6 10 -3 11 11 3 17 -9 54 -9 95 0 7 2 25 15
41 31 24 23 26 30 17 51 -12 26 -29 33 -71 32 -16 -1 -28 2 -28 7 0 6 -5 5
-12 0 -28 -21 -236 -22 -288 -3 -3 2 -8 2 -12 1 -5 0 -8 3 -8 9 0 6 -3 10 -7
9 -15 -2 -53 13 -53 21 0 4 -11 11 -25 14 -16 4 -22 11 -19 21 4 8 10 12 15 9
5 -3 9 -1 9 3 0 5 20 23 45 41 45 32 56 59 36 91 -13 21 -70 6 -111 -30 -19
-17 -46 -41 -60 -53 -14 -12 -28 -23 -33 -24 -12 -4 -69 30 -89 53 -15 18 -64
190 -72 255 -2 14 -6 32 -9 40 -3 8 -8 29 -11 45 -3 17 -7 41 -11 55 -3 14 -8
36 -10 50 -3 14 -12 48 -19 75 l-13 50 38 35 c58 53 66 59 73 53 3 -4 6 -2 6
4 0 13 111 37 170 36 60 0 160 -30 181 -54 9 -11 19 -36 23 -57 6 -41 37 -76
75 -85 32 -8 91 17 92 40 3 39 -1 68 -11 71 -5 2 -10 9 -10 15 -1 7 -19 30
-40 52 -22 22 -40 43 -40 47 0 18 193 -74 228 -108 7 -8 20 -14 28 -14 8 0 17
-7 20 -15 4 -8 12 -15 19 -15 7 0 18 -7 26 -16 17 -20 68 -46 99 -50 43 -6 87
14 93 41 2 14 0 25 -6 25 -6 0 -8 3 -4 6 8 9 -41 56 -78 74 -43 21 -136 79
-152 96 -25 24 27 47 118 50 109 5 163 37 144 85 -13 33 -61 38 -148 17 -50
-12 -111 -19 -157 -18 -104 2 -103 2 -117 13 -9 6 -13 6 -13 -2 0 -7 -8 -8
-23 -2 -13 5 -41 12 -63 15 -40 7 -133 63 -134 81 0 6 24 24 52 40 57 33 198
169 198 191 0 8 5 14 10 14 6 0 10 7 10 15 0 8 5 15 10 15 6 0 10 5 10 11 0 7
13 25 30 40 16 16 27 29 23 29 -11 0 47 52 117 106 78 59 156 139 173 176 6
16 15 28 18 28 8 0 14 64 10 115 -2 34 -86 111 -129 120 -9 2 -37 10 -62 18
-25 8 -52 15 -60 16 -81 7 -99 14 -132 54 -56 69 -100 106 -132 112 -17 4 -38
8 -46 10 -8 2 -35 -8 -60 -22z"/>
</g>
</svg>
